<svg id="visual" viewBox="0 0 2000 1000" width="2000" height="1000" xmlns="http://www.w3.org/2000/svg" xmlns:xlink="http://www.w3.org/1999/xlink" version="1.1"><rect x="0" y="0" width="2000" height="1000" fill="#aa91e0"></rect><path d="M0 460L47.7 465.2C95.3 470.3 190.7 480.7 285.8 495C381 509.3 476 527.7 571.2 527.5C666.3 527.3 761.7 508.7 857 498.2C952.3 487.7 1047.7 485.3 1143 490.2C1238.3 495 1333.7 507 1428.8 522.7C1524 538.3 1619 557.7 1714.2 560.7C1809.3 563.7 1904.7 550.3 1952.3 543.7L2000 537L2000 1001L1952.3 1001C1904.7 1001 1809.3 1001 1714.2 1001C1619 1001 1524 1001 1428.8 1001C1333.7 1001 1238.3 1001 1143 1001C1047.7 1001 952.3 1001 857 1001C761.7 1001 666.3 1001 571.2 1001C476 1001 381 1001 285.8 1001C190.7 1001 95.3 1001 47.7 1001L0 1001Z" fill="#5624d0"></path><path d="M0 552L47.7 551.3C95.3 550.7 190.7 549.3 285.8 561.8C381 574.3 476 600.7 571.2 602.7C666.3 604.7 761.7 582.3 857 571C952.3 559.7 1047.7 559.3 1143 554.7C1238.3 550 1333.7 541 1428.8 542.8C1524 544.7 1619 557.3 1714.2 569.7C1809.3 582 1904.7 594 1952.3 600L2000 606L2000 1001L1952.3 1001C1904.7 1001 1809.3 1001 1714.2 1001C1619 1001 1524 1001 1428.8 1001C1333.7 1001 1238.3 1001 1143 1001C1047.7 1001 952.3 1001 857 1001C761.7 1001 666.3 1001 571.2 1001C476 1001 381 1001 285.8 1001C190.7 1001 95.3 1001 47.7 1001L0 1001Z" fill="#4219c0"></path><path d="M0 704L47.7 692.8C95.3 681.7 190.7 659.3 285.8 647.2C381 635 476 633 571.2 636.5C666.3 640 761.7 649 857 656.3C952.3 663.7 1047.7 669.3 1143 665.3C1238.3 661.3 1333.7 647.7 1428.8 648.7C1524 649.7 1619 665.3 1714.2 660C1809.3 654.7 1904.7 628.3 1952.3 615.2L2000 602L2000 1001L1952.3 1001C1904.7 1001 1809.3 1001 1714.2 1001C1619 1001 1524 1001 1428.8 1001C1333.7 1001 1238.3 1001 1143 1001C1047.7 1001 952.3 1001 857 1001C761.7 1001 666.3 1001 571.2 1001C476 1001 381 1001 285.8 1001C190.7 1001 95.3 1001 47.7 1001L0 1001Z" fill="#2c0cb0"></path><path d="M0 759L47.7 745C95.3 731 190.7 703 285.8 698.8C381 694.7 476 714.3 571.2 715.3C666.3 716.3 761.7 698.7 857 689.2C952.3 679.7 1047.7 678.3 1143 677.2C1238.3 676 1333.7 675 1428.8 685.2C1524 695.3 1619 716.7 1714.2 724.5C1809.3 732.3 1904.7 726.7 1952.3 723.8L2000 721L2000 1001L1952.3 1001C1904.7 1001 1809.3 1001 1714.2 1001C1619 1001 1524 1001 1428.8 1001C1333.7 1001 1238.3 1001 1143 1001C1047.7 1001 952.3 1001 857 1001C761.7 1001 666.3 1001 571.2 1001C476 1001 381 1001 285.8 1001C190.7 1001 95.3 1001 47.7 1001L0 1001Z" fill="#0a00a1"></path><path d="M0 773L47.7 778C95.3 783 190.7 793 285.8 791C381 789 476 775 571.2 771.5C666.3 768 761.7 775 857 774.3C952.3 773.7 1047.7 765.3 1143 762.8C1238.3 760.3 1333.7 763.7 1428.8 763.3C1524 763 1619 759 1714.2 763C1809.3 767 1904.7 779 1952.3 785L2000 791L2000 1001L1952.3 1001C1904.7 1001 1809.3 1001 1714.2 1001C1619 1001 1524 1001 1428.8 1001C1333.7 1001 1238.3 1001 1143 1001C1047.7 1001 952.3 1001 857 1001C761.7 1001 666.3 1001 571.2 1001C476 1001 381 1001 285.8 1001C190.7 1001 95.3 1001 47.7 1001L0 1001Z" fill="#000090"></path><path d="M0 862L47.7 865C95.3 868 190.7 874 285.8 872.5C381 871 476 862 571.2 858C666.3 854 761.7 855 857 851C952.3 847 1047.7 838 1143 838.5C1238.3 839 1333.7 849 1428.8 858.8C1524 868.7 1619 878.3 1714.2 871C1809.3 863.7 1904.7 839.3 1952.3 827.2L2000 815L2000 1001L1952.3 1001C1904.7 1001 1809.3 1001 1714.2 1001C1619 1001 1524 1001 1428.8 1001C1333.7 1001 1238.3 1001 1143 1001C1047.7 1001 952.3 1001 857 1001C761.7 1001 666.3 1001 571.2 1001C476 1001 381 1001 285.8 1001C190.7 1001 95.3 1001 47.7 1001L0 1001Z" fill="#000080"></path><path d="M0 948L47.7 942.8C95.3 937.7 190.7 927.3 285.8 922.5C381 917.7 476 918.3 571.2 914.5C666.3 910.7 761.7 902.3 857 901.7C952.3 901 1047.7 908 1143 915C1238.3 922 1333.7 929 1428.8 929.8C1524 930.7 1619 925.3 1714.2 924.7C1809.3 924 1904.7 928 1952.3 930L2000 932L2000 1001L1952.3 1001C1904.7 1001 1809.3 1001 1714.2 1001C1619 1001 1524 1001 1428.8 1001C1333.7 1001 1238.3 1001 1143 1001C1047.7 1001 952.3 1001 857 1001C761.7 1001 666.3 1001 571.2 1001C476 1001 381 1001 285.8 1001C190.7 1001 95.3 1001 47.7 1001L0 1001Z" fill="#000000"></path></svg>